<?xml version="1.0" encoding="utf-8"?>
<!-- Generator: Adobe Illustrator 16.0.0, SVG Export Plug-In . SVG Version: 6.00 Build 0)  -->
<!DOCTYPE svg PUBLIC "-//W3C//DTD SVG 1.1//EN" "http://www.w3.org/Graphics/SVG/1.1/DTD/svg11.dtd">
<svg version="1.1" id="Layer_1" xmlns="http://www.w3.org/2000/svg" xmlns:xlink="http://www.w3.org/1999/xlink" x="0px" y="0px"
	 width="70.471px" height="46.1px" viewBox="14.76 26.9 70.471 46.1" enable-background="new 14.76 26.9 70.471 46.1"
	 xml:space="preserve">
<title>General</title>
<path fill="#9D5125" d="M85.23,58v3.189C85.23,67,78.85,73,71,73H29c-7.85,0-14.23-6-14.23-11.811V58H85.23z"/>
<path fill="#F58535" d="M41.89,26.9c7.073-0.012,13.497,4.12,16.42,10.56c4.167-2.848,9.854-1.779,12.703,2.389
	c0.968,1.417,1.518,3.077,1.586,4.792C79.7,45.23,85.23,52.08,85.23,57.52V58.7c0,5.85-6.381,11.78-14.261,11.78H29
	c-7.86,0-14.24-5.931-14.24-11.78v-1.17c0-4.511,3.79-10.71,9.12-12.25c0-0.16,0-0.34,0-0.51
	C23.918,34.862,31.982,26.861,41.89,26.9C41.89,26.9,41.89,26.9,41.89,26.9z"/>
<path fill="#FFFFFF" d="M32.42,47.81l-4.71,16.45h2.76l1.061-4h4.85l1,4h2.76l-4.33-16.45H32.42z M32,58.13L34,50l0,0l1.9,8.109
	L32,58.13z"/>
<polygon fill="#FFFFFF" points="51.99,60.66 51.95,60.66 49.72,47.81 46.94,47.81 44.76,60.59 44.71,60.59 42.54,47.81 39.87,47.81 
	43.06,64.26 46.13,64.26 48.24,51.87 48.29,51.87 50.42,64.26 53.48,64.26 56.77,47.81 54.15,47.81 "/>
<path fill="#FFFFFF" d="M65.28,55.28l-1.79-0.65C61.74,54,61,53.25,61,51.84c-0.146-1.156,0.674-2.211,1.83-2.357
	c0.129-0.017,0.26-0.021,0.39-0.013c1.134-0.152,2.175,0.643,2.328,1.775c0.026,0.201,0.024,0.405-0.008,0.604V52.2h2.649v-0.37
	c0-1.7-0.439-4.33-4.68-4.33c-3.109,0-5.15,1.66-5.15,4.66c0,2.35,1,3.59,3.451,4.51l1.81,0.63c1.429,0.196,2.466,1.46,2.38,2.9
	c0.037,1.292-0.98,2.368-2.273,2.405c-0.078,0.002-0.158,0-0.236-0.006c-1.83,0-2.71-1-2.71-3v-0.42h-2.64v0.391c0,2.3,0.93,5,5,5
	c3.34,0,5.479-1.45,5.479-4.95C68.65,57.37,67.62,56.1,65.28,55.28z"/>
</svg>
