<?xml version="1.0" encoding="utf-8"?>
<!-- Generator: Adobe Illustrator 16.0.0, SVG Export Plug-In . SVG Version: 6.00 Build 0)  -->
<!DOCTYPE svg PUBLIC "-//W3C//DTD SVG 1.1//EN" "http://www.w3.org/Graphics/SVG/1.1/DTD/svg11.dtd">
<svg version="1.1" id="Layer_1" xmlns="http://www.w3.org/2000/svg" xmlns:xlink="http://www.w3.org/1999/xlink" x="0px" y="0px"
	 width="1200px" height="1200px" viewBox="400 0 1200 1200" enable-background="new 400 0 1200 1200" xml:space="preserve">
<rect x="400" fill="#F7DF1E" width="1200" height="1200"/>
<path d="M1206.096,937.505c24.171,39.467,55.619,68.477,111.237,68.477c46.724,0,76.571-23.353,76.571-55.619
	c0-38.667-30.666-52.362-82.095-74.857l-28.19-12.096c-81.371-34.666-135.429-78.095-135.429-169.904
	c0-84.571,64.438-148.952,165.143-148.952c71.695,0,123.238,24.952,160.382,90.285l-87.811,56.381
	c-19.333-34.666-40.189-48.323-72.571-48.323c-33.028,0-53.962,20.952-53.962,48.323c0,33.829,20.953,47.524,69.334,68.477
	l28.19,12.076c95.81,41.086,149.904,82.972,149.904,177.143c0,101.524-79.752,157.144-186.856,157.144
	c-104.725,0-172.382-49.905-205.486-115.314L1206.096,937.505z M807.752,947.276c17.715,31.429,33.829,58,72.572,58
	c37.047,0,60.419-14.495,60.419-70.857V550.99h112.762v384.953c0,116.762-68.457,169.904-168.381,169.904
	c-90.286,0-142.571-46.724-169.162-103L807.752,947.276z"/>
</svg>
