<?xml version="1.0" encoding="utf-8"?>
<!-- Generator: Adobe Illustrator 16.0.0, SVG Export Plug-In . SVG Version: 6.00 Build 0)  -->
<!DOCTYPE svg PUBLIC "-//W3C//DTD SVG 1.1//EN" "http://www.w3.org/Graphics/SVG/1.1/DTD/svg11.dtd">
<svg version="1.1" id="Layer_1" xmlns="http://www.w3.org/2000/svg" xmlns:xlink="http://www.w3.org/1999/xlink" x="0px" y="0px"
	 width="1199.787px" height="820.765px" viewBox="400.207 -0.116 1199.787 820.765"
	 enable-background="new 400.207 -0.116 1199.787 820.765" xml:space="preserve">
<title  id="laravel-logo-title">Laravel logo</title>
<path fill="#F0543F" d="M1595.313,383.813c-7.875-9-117.75-146.438-137.063-169.688s-28.875-18.75-40.688-17.438
	s-150,25.125-167.063,27.75s-26.25,9.188-16.313,23.063l120.375,170.438l-363.375,86.625L702.25,22.125
	C690.813,5.063,688.375-1.688,662.5,0.188s-226.688,18.75-240.938,18.75s-30,7.5-15.75,41.25S647.5,584.813,653.875,598.313
	c9.608,24.381,36.772,36.804,61.5,28.125c39.563-9.563,176.813-45.375,251.813-65.063
	c39.563,71.813,120.375,217.313,135.375,238.125c19.875,27.938,33.75,23.25,64.313,13.875c24-7.313,375-133.313,390-139.688
	s25.5-11.063,14.813-27c-7.688-10.875-100.125-134.438-148.5-198.375l163.688-43.688
	C1601.313,399.938,1603.375,392.063,1595.313,383.813z M934.938,518.813l-218.625,52.125c-10.875,2.438-10.875,1.313-12.188-2.438
	S462.25,68.438,458.875,62.25s-3.188-11.063,0-11.063s192.188-16.875,198.75-17.25s6,1.125,8.438,5.25l271.125,468.75
	C942.063,515.438,943.75,516.563,934.938,518.813z M1508.688,626.25c3.188,5.063,6.563,8.438-3.75,12
	S1160.5,754.875,1154.125,757.688s-11.625,3.75-19.875-8.438s-117-200.25-117-200.25l354-92.063
	c10.313-3.375,12.75-2.063,17.25,4.125s117.75,160.313,120.188,165.375V626.25z M1531.375,374.813
	c-7.875,1.875-137.625,34.125-137.625,34.125l-106.313-145.875c-3-4.313-5.438-8.438,2.063-9.375s128.25-22.875,133.688-24
	c6.426-2.689,13.833,0.109,16.875,6.375c6.75,9.188,98.625,125.625,102.188,130.125s-3,7.125-10.875,8.813V374.813z"/>
<path opacity="0.4" fill="#2B2626" enable-background="new    " d="M941.5,514.688c0,2.063-1.125,2.813-6.375,4.125l-28.875,7.125
	l26.063,45.75l35.625-9.375"/>
<g opacity="0.4">
	<path fill="#2B2626" d="M1383.438,456c2.099,1.301,3.839,3.105,5.063,5.25l17.25,24.563l37.5-11.25l-20.063-26.25"/>
</g>
</svg>
