<?xml version="1.0" encoding="utf-8"?>
<!-- Generator: Adobe Illustrator 16.0.0, SVG Export Plug-In . SVG Version: 6.00 Build 0)  -->
<!DOCTYPE svg PUBLIC "-//W3C//DTD SVG 1.1//EN" "http://www.w3.org/Graphics/SVG/1.1/DTD/svg11.dtd">
<svg version="1.1" id="Layer_1" xmlns="http://www.w3.org/2000/svg" xmlns:xlink="http://www.w3.org/1999/xlink" x="0px" y="0px"
	 width="1600.05px" height="1199.941px" viewBox="199.437 -0.077 1600.05 1199.941"
	 enable-background="new 199.437 -0.077 1600.05 1199.941" xml:space="preserve">
<path fill="#CD6799" d="M1577.204,689.723c-55.821,0.292-104.335,13.735-144.959,33.609c-14.904-29.519-29.81-55.821-32.44-75.11
	c-2.922-22.503-6.43-36.239-2.922-63.127c3.507-26.888,19.289-65.173,18.996-68.096c-0.292-2.922-3.507-16.658-35.655-16.95
	c-32.147-0.292-59.912,6.138-63.127,14.612c-3.215,8.476-9.353,27.765-13.443,47.638c-5.553,29.226-64.296,133.561-97.905,188.213
	c-10.814-21.335-20.166-40.039-22.212-54.944c-2.923-22.504-6.43-36.239-2.923-63.127c3.508-26.888,19.289-65.173,18.997-68.096
	s-3.507-16.658-35.655-16.951c-32.148-0.292-59.912,6.138-63.127,14.613s-6.722,28.349-13.444,47.638
	c-6.722,19.289-84.754,193.473-105.212,238.48c-10.521,23.088-19.581,41.5-26.011,54.066l0,0c0,0-0.292,0.877-1.169,2.339
	c-5.553,10.813-8.768,16.658-8.768,16.658s0,0,0,0.292c-4.384,7.892-9.06,15.197-11.397,15.197c-1.754,0-4.969-21.042,0.584-49.683
	c11.69-60.497,39.455-154.604,39.163-157.818c0-1.754,5.26-18.12-18.12-26.595c-22.796-8.476-30.979,5.553-33.025,5.553
	s-3.507,4.968-3.507,4.968s25.426-105.796-48.515-105.796c-46.176,0-109.888,50.56-141.451,96.151
	c-19.873,10.813-62.25,33.902-107.55,58.743c-17.243,9.645-35.07,19.289-51.729,28.35c-1.169-1.169-2.338-2.631-3.507-3.8
	c-89.43-95.567-254.847-163.078-247.833-291.378c2.63-46.762,18.705-169.509,317.681-318.559
	c246.079-121.286,441.891-87.677,475.792-13.151c48.515,106.381-104.92,303.945-359.182,332.586
	c-97.029,10.813-147.881-26.595-160.74-40.623c-13.444-14.612-15.49-15.489-20.458-12.567c-8.184,4.384-2.923,17.536,0,25.135
	c7.599,19.873,38.87,54.943,91.769,72.187c46.761,15.197,160.447,23.673,298.1-29.518c154.019-59.62,274.428-225.329,239.065-364.15
	C1166.001,5.845,932.197-40.624,710.96,37.993C579.444,84.754,436.824,158.402,334.243,254.262
	C212.372,368.241,193.083,467.316,200.974,508.816c28.349,147.297,231.466,243.156,312.713,314.175
	c-4.092,2.338-7.891,4.384-11.105,6.137c-40.624,20.166-195.519,101.12-234.097,186.751
	c-43.838,97.029,7.014,166.586,40.623,175.938c104.335,28.934,211.593-23.088,269.167-109.011s50.561-197.564,23.965-248.709
	c-0.292-0.585-0.584-1.169-1.169-1.754c10.521-6.137,21.335-12.566,31.856-18.704c20.75-12.274,41.208-23.673,58.743-33.024
	c-9.937,27.18-17.243,59.62-20.75,106.381c-4.384,54.943,18.119,126.254,47.638,154.311c13.151,12.274,28.641,12.566,38.577,12.566
	c34.486,0,49.976-28.641,67.219-62.542c21.042-41.501,40.039-89.723,40.039-89.723s-23.673,130.346,40.624,130.346
	c23.38,0,47.053-30.395,57.574-45.884c0,0.292,0,0.292,0,0.292s0.584-0.877,1.753-2.923c2.338-3.799,3.8-6.137,3.8-6.137
	s0-0.293,0-0.585c9.352-16.366,30.395-53.482,61.666-115.148c40.331-79.493,79.201-178.86,79.201-178.86s3.507,24.258,15.489,64.589
	c7.014,23.673,21.627,49.684,33.317,74.817c-9.353,13.151-15.198,20.458-15.198,20.458s0,0,0.293,0.292
	c-7.599,9.937-15.782,20.75-24.842,31.271c-31.856,37.993-69.849,81.539-75.11,94.105c-6.137,14.905-4.676,25.719,7.015,34.486
	c8.476,6.43,23.673,7.307,39.162,6.43c28.641-2.046,48.807-9.06,58.743-13.443c15.49-5.553,33.609-14.028,50.561-26.596
	c31.271-23.088,50.268-56.113,48.514-99.659c-0.876-23.965-8.768-47.93-18.411-70.434c2.922-4.091,5.553-8.183,8.475-12.274
	c49.392-72.187,87.677-151.388,87.677-151.388s3.508,24.257,15.489,64.588c5.846,20.458,17.828,42.669,28.35,64.296
	c-46.469,37.701-75.11,81.54-85.339,110.181c-18.412,53.19-4.092,77.155,23.088,82.708c12.275,2.631,29.811-3.215,42.67-8.768
	c16.366-5.261,35.654-14.32,54.066-27.765c31.271-23.088,61.374-55.235,59.62-98.782c-0.876-19.873-6.138-39.454-13.443-58.45
	c39.454-16.367,90.307-25.427,155.188-17.828c139.113,16.366,166.585,103.166,161.325,139.698
	c-5.261,36.532-34.486,56.405-44.131,62.542c-9.645,6.138-12.859,8.184-11.982,12.567c1.169,6.43,5.846,6.138,14.028,4.969
	c11.397-2.046,73.063-29.519,75.694-96.737C1803.702,782.659,1721.871,688.846,1577.204,689.723z M504.043,1051.534
	c-46.177,50.268-110.473,69.265-138.237,53.19c-29.81-17.243-18.12-91.476,38.578-144.666
	c34.486-32.44,78.909-62.543,108.427-80.955c6.722-4.092,16.658-9.937,28.641-17.243c2.046-1.169,3.215-1.753,3.215-1.753l0,0
	c2.338-1.462,4.677-2.923,7.015-4.384C572.431,931.71,552.558,998.636,504.043,1051.534z M840.137,822.991
	c-16.074,39.162-49.684,139.405-70.142,133.853c-17.535-4.676-28.349-80.662-3.507-155.772
	c12.566-37.7,39.162-82.708,54.651-100.243c25.134-28.057,52.898-37.409,59.62-26.011
	C889.235,689.723,850.073,798.441,840.137,822.991z M1117.486,955.675c-6.722,3.507-13.151,5.845-16.074,4.092
	c-2.045-1.169,2.923-5.846,2.923-5.846s34.778-37.408,48.515-54.359c7.891-9.937,17.243-21.627,27.18-34.778c0,1.169,0,2.63,0,3.799
	C1180.029,913.298,1136.775,943.399,1117.486,955.675z M1331.418,906.868c-4.969-3.507-4.092-15.197,12.566-51.729
	c6.43-14.32,21.627-38.285,47.638-61.373c2.923,9.352,4.968,18.411,4.676,26.887
	C1396.006,877.058,1355.675,898.101,1331.418,906.868z"/>
</svg>
