<?xml version="1.0" encoding="utf-8"?>
<!-- Generator: Adobe Illustrator 16.0.0, SVG Export Plug-In . SVG Version: 6.00 Build 0)  -->
<!DOCTYPE svg PUBLIC "-//W3C//DTD SVG 1.1//EN" "http://www.w3.org/Graphics/SVG/1.1/DTD/svg11.dtd">
<svg version="1.1"
	 id="svg2985" xmlns:rdf="http://www.w3.org/1999/02/22-rdf-syntax-ns#" xmlns:dc="http://purl.org/dc/elements/1.1/" xmlns:svg="http://www.w3.org/2000/svg" xmlns:cc="http://creativecommons.org/ns#"
	 xmlns="http://www.w3.org/2000/svg" xmlns:xlink="http://www.w3.org/1999/xlink" x="0px" y="0px" width="361.844px"
	 height="160.594px" viewBox="10 10 361.844 160.594" enable-background="new 10 10 361.844 160.594" xml:space="preserve">
<title  id="title2998">SQLite</title>
<path id="SQLite" fill="#003B57" d="M147.531,89.219c-4.822,0-8.744,1.428-11.75,4.281c-3.006,2.856-4.531,6.601-4.531,11.188
	c0,2.378,0.379,4.545,1.125,6.531c0.746,1.99,1.907,3.834,3.469,5.5c1.562,1.667,4.687,3.933,9.344,6.813
	c5.715,3.489,9.455,6.32,11.25,8.531c1.796,2.209,2.688,4.524,2.688,6.938c0,3.231-1.063,5.812-3.25,7.75
	c-2.19,1.94-5.119,2.906-8.75,2.906c-3.83,0-7.166-1.351-10.031-4.031c-2.865-2.685-4.312-6.236-4.344-10.688h-1.781v16.156h1.781
	c0.544-1.53,1.296-2.313,2.281-2.313c0.474,0,1.584,0.327,3.313,0.938c4.206,1.497,7.66,2.219,10.375,2.219
	c4.679,0,8.672-1.639,12-4.969c3.322-3.329,5-7.344,5-12.031c0-3.635-1.107-6.868-3.281-9.688
	c-2.174-2.822-6.401-6.104-12.719-9.875c-5.437-3.267-8.965-5.927-10.594-8c-1.631-2.071-2.469-4.361-2.469-6.875
	c0-2.719,0.999-4.902,2.969-6.531c1.97-1.63,4.551-2.438,7.781-2.438c3.635,0,6.665,1.079,9.063,3.25
	c2.395,2.175,3.78,5.188,4.188,9.063h1.781v-14h-1.656c-0.203,0.714-0.39,1.17-0.563,1.375c-0.167,0.204-0.49,0.313-0.969,0.313
	c-0.576,0-1.604-0.243-3.063-0.719C153.063,89.76,150.181,89.219,147.531,89.219z M205.75,89.219
	c-5.876,0-11.211,1.385-16.031,4.156c-4.828,2.767-8.649,6.607-11.469,11.5c-2.819,4.892-4.219,10.088-4.219,15.625
	c0,7.438,2.435,14.066,7.344,19.875c4.911,5.806,10.797,9.423,17.625,10.813c1.562,0.813,3.795,2.913,6.719,6.313
	c3.295,3.836,6.082,6.603,8.375,8.25c2.29,1.648,4.763,2.856,7.375,3.656c2.615,0.796,5.442,1.188,8.5,1.188
	c3.703,0,7.018-0.644,9.938-1.969L239.25,167c-1.695,0.611-3.502,0.906-5.406,0.906c-2.584,0-5.195-0.853-7.813-2.563
	c-2.613-1.715-5.883-4.986-9.781-9.813c-1.832-2.313-3.098-3.771-3.813-4.344c7.471-1.459,13.615-5.08,18.406-10.875
	c4.79-5.792,7.188-12.403,7.188-19.813c0-8.798-3.13-16.19-9.344-22.219C222.469,92.253,214.821,89.219,205.75,89.219z
	 M242.094,89.219l0.094,1.906c3.912,0,6.104,1.152,6.594,3.469c0.183,0.829,0.266,2.358,0.281,4.563l-0.031,42.156
	c-0.032,3.148-0.481,5.159-1.344,6.031c-0.863,0.866-2.324,1.409-4.438,1.625l-0.094,1.906h39l1-9.563h-1.781
	c-0.509,2.604-1.675,4.472-3.531,5.531c-1.861,1.067-5.152,1.594-9.906,1.594h-3.688c-4.277,0-6.752-1.546-7.406-4.656
	c-0.135-0.615-0.182-1.274-0.188-2l0.156-42.625c-0.001-3.144,0.396-5.25,1.219-6.281c0.831-1.027,2.33-1.603,4.5-1.75l-0.094-1.906
	H242.094L242.094,89.219z M206.375,91.531c6.627,0,12.039,2.61,16.219,7.875c4.179,5.267,6.25,12.485,6.25,21.625
	c0,8.661-2.102,15.597-6.313,20.813c-4.211,5.215-9.816,7.813-16.781,7.813c-6.691,0-12.117-2.679-16.281-8.063
	c-4.16-5.384-6.219-12.374-6.219-20.969c0-8.833,2.084-15.903,6.281-21.188C193.727,94.159,199.344,91.531,206.375,91.531z
	 M296.063,100.594c-0.951,0-1.676,0.321-2.219,0.969c-0.555,0.646-0.725,1.427-0.531,2.375c0.188,0.921,0.706,1.728,1.531,2.406
	c0.82,0.679,1.705,1.031,2.656,1.031c0.92,0,1.621-0.353,2.125-1.031s0.657-1.485,0.469-2.406c-0.193-0.948-0.695-1.729-1.469-2.375
	C297.843,100.915,296.982,100.594,296.063,100.594z M321.781,107.063c-1.616,6.218-5.12,9.583-10.5,10.125l0.063,1.781h6.281
	l-0.125,21.063c0.01,3.601,0.12,5.999,0.375,7.219c0.619,2.921,2.526,4.406,5.719,4.406c4.619,0,9.464-2.813,14.531-8.438
	l-1.531-1.313c-3.658,3.704-6.894,5.563-9.719,5.563c-1.736,0-2.813-0.999-3.219-2.969c-0.111-0.479-0.156-1.038-0.156-1.688
	l0.063-23.844h9.594l-0.094-2.844h-9.469v-9.063H321.781L321.781,107.063z M358.875,115c-5.366,0-9.731,2.604-13.125,7.781
	c-3.376,5.185-4.422,10.93-3.094,17.25c0.781,3.702,2.338,6.571,4.719,8.594c2.377,2.021,5.394,3.031,9,3.031
	c3.357,0,8.032-0.851,10-2.563c1.973-1.712,3.79-4.483,5.469-8.281l-1.344-1.406c-2.678,4.927-8.081,7.406-12.156,7.406
	c-5.603,0-9.033-3.073-10.313-9.188c-0.166-0.78-0.29-1.618-0.375-2.5c6.665-1.056,11.717-2.924,15.125-5.625
	c3.406-2.702,6.826-5.567,6.188-8.594c-0.38-1.798-1.313-3.212-2.75-4.281C364.764,115.557,360.986,115,358.875,115z
	 M300.219,115.219l-11.563,2.656v2.063l4-0.5c1.938,0,3.078,0.878,3.438,2.625c0.121,0.585,0.197,1.406,0.219,2.438l-0.125,18.906
	c-0.032,2.616-0.322,4.138-0.906,4.594c-0.589,0.458-2.141,0.688-4.656,0.688l-0.063,1.781h18.344l-0.031-1.781
	c-2.549,0-4.201-0.201-4.938-0.594c-0.724-0.39-1.223-1.101-1.438-2.188c-0.166-0.784-0.238-2.134-0.25-4l0.063-26.688H300.219
	L300.219,115.219z M355.938,118.719c1.116,0,2.195,0.431,3.281,1.281c1.071,0.847,1.724,1.789,1.938,2.813
	c1.047,5.026-3.41,8.501-13.438,10.438c-0.286-3.665,0.349-6.992,1.969-10C351.295,120.245,353.389,118.719,355.938,118.719z"/>
<path id="solid-background" fill="#0F80CC" d="M121.631,17.036H22.125C15.457,17.036,10,22.494,10,29.163v109.737
	c0,6.668,5.457,12.125,12.125,12.125h65.537C86.919,118.415,98.055,55.13,121.631,17.036z"/>
<linearGradient id="gradient-background_1_" gradientUnits="userSpaceOnUse" x1="-805.4541" y1="717.0244" x2="-796.58" y2="717.0244" gradientTransform="matrix(-5.025000e-007 11.4863 11.4863 5.025000e-007 -8170.1982 9274.54)">
	<stop  offset="0" style="stop-color:#97D9F6"/>
	<stop  offset="0.9202" style="stop-color:#0F80CC"/>
	<stop  offset="1" style="stop-color:#0F80CC"/>
</linearGradient>
<path id="gradient-background" fill="url(#gradient-background_1_)" d="M118.017,20.574H22.125c-4.735,0-8.589,3.853-8.589,8.589
	v101.73c21.717-8.335,54.312-15.526,76.85-15.2C94.915,92.011,108.226,45.602,118.017,20.574z"/>
<path id="feather" fill="#003B57" d="M144.841,13.445c-6.815-6.077-15.066-3.636-23.21,3.591c-1.208,1.074-2.415,2.265-3.615,3.538
	c-13.931,14.779-26.863,42.154-30.88,63.06c1.565,3.174,2.787,7.224,3.592,10.317c0.206,0.794,0.393,1.539,0.542,2.173
	c0.354,1.5,0.543,2.473,0.543,2.473s-0.125-0.473-0.637-1.959c-0.098-0.285-0.207-0.597-0.335-0.963
	c-0.055-0.15-0.131-0.335-0.215-0.531c-0.909-2.112-3.422-6.571-4.529-8.512c-0.946,2.791-1.782,5.403-2.482,7.765
	c3.194,5.843,5.14,15.857,5.14,15.857s-0.169-0.649-0.971-2.914c-0.713-2.003-4.261-8.222-5.102-9.675
	c-1.438,5.309-2.009,8.893-1.494,9.766c1,1.69,1.953,4.607,2.79,7.834c1.89,7.27,3.204,16.117,3.204,16.117s0.042,0.587,0.114,1.489
	c-0.263,6.104-0.105,12.433,0.367,18.153c0.626,7.572,1.805,14.076,3.308,17.559l1.02-0.557c-2.206-6.859-3.103-15.848-2.71-26.214
	c0.594-15.845,4.24-34.954,10.978-54.87c11.382-30.065,27.175-54.188,41.629-65.708c-13.174,11.897-31.004,50.409-36.341,64.67
	c-5.977,15.97-10.211,30.957-12.764,45.315c4.404-13.461,18.643-19.247,18.643-19.247s6.984-8.612,15.145-20.917
	c-4.889,1.114-12.916,3.023-15.605,4.153c-3.966,1.663-5.035,2.231-5.035,2.231s12.847-7.824,23.87-11.367
	C144.958,62.199,161.473,28.281,144.841,13.445"/>
</svg>
