<svg xmlns="http://www.w3.org/2000/svg" viewBox="0 0 843.1 116.3">
    <path fill="#5B5F66" d="M45.2 0h10.1v32H45.2zM68.1 26.2h10.1V62H68.1zM90.4 45.3h10.1v7.9H90.4z"/>
    <path fill="#428BD9" d="M90.4 60h10.1v18.6H90.4z"/>
    <path fill="#5B5F66" d="M22.8 26.2h10.1v18.5H22.8z"/>
    <path fill="#428BD9" d="M22.9 52.6H33v42H22.9zM.3 66.4h10.1v12.2H.3z"/>
    <path fill="#5B5F66" d="M.6 44.6h10.1v14.9H.6z"/>
    <path fill="#428BD9"
          d="M45.5 39.5h10.1v77.8H45.5zM68.2 69h10.1v25.5H68.2zM127.9 78.7l6.7-54.5h17.5c3 0 5.6.3 7.7.9 2.1.6 3.9 1.4 5.3 2.5s2.4 2.4 3 3.9c.7 1.5 1 3.2 1 5.1 0 1.6-.2 3-.6 4.5-.4 1.4-1.1 2.7-1.9 3.9-.9 1.2-2 2.3-3.4 3.2-1.4 1-3 1.7-4.9 2.4 3.1.8 5.4 2 6.9 3.8s2.3 4 2.3 6.6c0 2.5-.5 4.8-1.4 7-.9 2.1-2.3 4-4 5.6-1.8 1.6-3.9 2.8-6.4 3.7-2.5.9-5.4 1.3-8.6 1.3h-19.2zm12.7-24l-2 16.4h9.2c1.8 0 3.3-.2 4.5-.7 1.3-.5 2.3-1.1 3.1-2s1.4-1.9 1.8-3.1c.4-1.2.6-2.6.6-4 0-2-.6-3.6-1.9-4.7-1.3-1.2-3.3-1.8-6.2-1.8h-9.1zm.8-6.7h7.2c3.4 0 6-.8 7.8-2.4 1.8-1.6 2.7-4 2.7-7.3 0-2.3-.6-3.9-1.9-5-1.3-1-3.3-1.6-6-1.6h-7.8l-2 16.3zM186.3 40.1l-4.6 38.6h-9.2l4.6-38.6h9.2zm2.4-11.3c0 .8-.2 1.6-.5 2.3-.3.7-.8 1.3-1.3 1.8s-1.2.9-1.9 1.3c-.7.3-1.4.5-2.2.5-.7 0-1.4-.2-2.1-.5-.7-.3-1.3-.7-1.8-1.3s-.9-1.1-1.3-1.8c-.3-.7-.5-1.5-.5-2.3 0-.8.2-1.6.5-2.3.3-.7.8-1.4 1.3-1.9s1.1-1 1.8-1.3c.7-.3 1.4-.5 2.1-.5.8 0 1.5.2 2.2.5.7.3 1.3.7 1.9 1.3.5.5 1 1.2 1.3 1.9.3.7.5 1.5.5 2.3zM190.3 78.7L195 40h4.7c.9 0 1.6.2 2.2.6.6.4.9 1 .9 1.9v.9c0 .4-.1 1.1-.1 2 0 .9-.1 2.2-.2 3.9 1.6-3 3.3-5.4 5.2-7 1.9-1.7 3.8-2.5 5.9-2.5 1 0 2.1.2 3.1.7l-1.7 8.9c-1.3-.5-2.4-.8-3.6-.8-2.2 0-4.2 1.1-5.9 3.2-1.7 2.1-3.1 5.5-4.1 10l-2 16.9h-9.1zM220.5 70.9v-.6c0-.2 0-.6.1-1.1 0-.5.1-1.1.2-1.8.1-.8.2-1.8.4-3l2.1-17.3h-3.7c-.4 0-.8-.1-1-.4s-.4-.7-.4-1.2v-.2c0-.1 0-.2.1-.5s.1-.7.1-1.2c.1-.5.1-1.3.2-2.2l5.9-1 3.1-10.5c.2-.5.4-.9.8-1.2.4-.3.8-.4 1.3-.4h5l-1.5 12.2h9.3l-.8 6.6h-9.4l-2.1 16.8c-.1 1-.2 1.8-.3 2.4-.1.6-.1 1.1-.2 1.4 0 .3-.1.6-.1.7v.3c0 1 .2 1.7.7 2.3.5.6 1.1.8 2 .8.5 0 1-.1 1.4-.2.4-.1.7-.3 1-.4.3-.2.5-.3.7-.4.2-.1.4-.2.6-.2.3 0 .5.1.7.2.2.1.3.3.4.6l2 4.5c-1.4 1.1-2.9 2-4.6 2.6-1.7.6-3.4.9-5.1.9-2.7 0-4.9-.7-6.5-2.2-1.5-1.6-2.3-3.7-2.4-6.3zM243.2 78.7l6.8-56h9.3l-2.9 23.9c1.9-2.4 3.9-4.2 6.1-5.4 2.2-1.2 4.4-1.8 6.7-1.8 1.5 0 2.8.3 4 .8 1.2.5 2.2 1.3 3 2.3.8 1 1.5 2.2 1.9 3.7.5 1.4.7 3.1.7 5 0 .5 0 1-.1 1.4s-.1 1-.1 1.5l-2.9 24.6h-9.3l2.9-24.6c.1-.5.1-.9.1-1.3s.1-.8.1-1.1c0-1.7-.3-2.8-.9-3.6-.6-.7-1.6-1.1-2.9-1.1-1 0-1.9.3-3 .8-1 .5-2 1.3-3 2.3-1 1-1.8 2.2-2.7 3.6-.8 1.4-1.5 3-2.1 4.7l-2.4 20.3h-9.3zM320.4 71.1c1.5 0 2.9-.1 4-.4 1.1-.2 2.1-.5 3-.9.8-.4 1.6-.8 2.2-1.2.6-.4 1.1-.8 1.6-1.2.5-.4.9-.7 1.2-.9.4-.2.7-.4 1.1-.4.3 0 .6.1.8.2.2.1.4.3.5.4l3.4 4.3c-2.4 2.7-5.1 4.8-8.3 6.2-3.2 1.4-6.9 2.2-11 2.2-3.3 0-6.3-.6-8.9-1.8s-4.8-2.8-6.6-5c-1.8-2.1-3.2-4.6-4.1-7.5-.9-2.9-1.4-6-1.4-9.5 0-3.1.3-6.1 1-8.9.7-2.8 1.6-5.4 2.9-7.8 1.3-2.4 2.8-4.5 4.5-6.4 1.8-1.9 3.7-3.5 5.8-4.8 2.1-1.3 4.4-2.3 6.9-3.1 2.5-.7 5.1-1.1 7.7-1.1 2 0 3.8.2 5.4.5 1.6.4 3.1.9 4.4 1.5 1.3.7 2.5 1.4 3.6 2.4 1.1.9 2 1.9 2.9 3.1l-3.4 4.1c-.3.3-.5.6-.9.8-.3.2-.8.3-1.3.3-.6 0-1.1-.2-1.6-.7-.5-.5-1.1-.9-1.9-1.5-.8-.5-1.8-1-3-1.5s-2.8-.7-4.8-.7c-2.6 0-5 .5-7.3 1.6-2.2 1.1-4.2 2.6-5.8 4.6-1.7 2-3 4.4-3.9 7.2-.9 2.8-1.4 5.9-1.4 9.4 0 2.5.3 4.8 1 6.8.6 2 1.5 3.7 2.7 5.1 1.1 1.4 2.5 2.5 4 3.2 1.4 1 3.1 1.4 5 1.4zM374.1 49.1c0 1.7-.3 3.3-1 4.7-.7 1.4-1.9 2.7-3.7 3.8s-4.2 2.1-7.2 2.9c-3.1.8-6.9 1.5-11.7 1.9v.6c0 6.1 2.6 9.1 7.7 9.1 1.1 0 2.1-.1 2.9-.3.9-.2 1.6-.5 2.2-.8s1.2-.6 1.7-1 1-.7 1.4-1c.4-.3.9-.6 1.3-.8.4-.2.9-.3 1.4-.3.3 0 .6.1.9.2.3.1.6.3.8.6l2.4 2.9c-1.3 1.3-2.6 2.5-3.9 3.5-1.3 1-2.6 1.8-3.9 2.4-1.3.6-2.7 1.1-4.2 1.4-1.5.3-3.1.5-4.9.5-2.3 0-4.3-.4-6.1-1.1-1.8-.8-3.4-1.8-4.7-3.2-1.3-1.4-2.3-3.1-3-5-.7-2-1.1-4.2-1.1-6.6 0-2 .2-4 .7-6 .4-2 1.1-3.8 1.9-5.6.8-1.8 1.8-3.4 3.1-4.9 1.2-1.5 2.6-2.8 4.1-3.8 1.5-1.1 3.2-1.9 5-2.5s3.8-.9 5.9-.9c2 0 3.8.3 5.3.9 1.5.6 2.8 1.3 3.8 2.2 1 .9 1.8 1.9 2.3 3.1.4.9.6 2 .6 3.1zM361.4 46c-1.3 0-2.4.3-3.5.8S355.8 48 355 49c-.9.9-1.6 2-2.3 3.3-.6 1.3-1.1 2.7-1.5 4.2 3.1-.4 5.6-.9 7.5-1.4 1.9-.5 3.4-1.1 4.4-1.7 1-.6 1.7-1.2 2.1-1.9.3-.7.5-1.4.5-2.2 0-.4-.1-.8-.2-1.2-.2-.4-.4-.8-.8-1.1-.3-.3-.8-.6-1.3-.8-.5-.1-1.2-.2-2-.2zM376.4 78.7l4.7-38.7h4.7c.9 0 1.6.2 2.2.6.6.4.9 1 .9 1.9v.9c0 .4-.1 1.1-.1 2 0 .9-.1 2.2-.2 3.9 1.6-3 3.3-5.4 5.2-7 1.9-1.7 3.8-2.5 5.9-2.5 1 0 2.1.2 3.1.7l-1.7 8.9c-1.3-.5-2.4-.8-3.6-.8-2.2 0-4.2 1.1-5.9 3.2-1.7 2.1-3.1 5.5-4.1 10l-2 16.9h-9.1zM406.6 70.9v-.6c0-.2 0-.6.1-1.1 0-.5.1-1.1.2-1.8.1-.8.2-1.8.4-3l2.1-17.3h-3.7c-.4 0-.8-.1-1-.4s-.4-.7-.4-1.2v-.2c0-.1 0-.2.1-.5s.1-.7.1-1.2c.1-.5.1-1.3.2-2.2l5.9-1 3.1-10.5c.2-.5.4-.9.8-1.2.4-.3.8-.4 1.3-.4h5l-1.5 12.2h9.3l-.8 6.6h-9.4l-2.1 16.8c-.1 1-.2 1.8-.3 2.4-.1.6-.1 1.1-.2 1.4 0 .3-.1.6-.1.7v.3c0 1 .2 1.7.7 2.3.5.6 1.1.8 2 .8.5 0 1-.1 1.4-.2.4-.1.7-.3 1-.4.3-.2.5-.3.7-.4.2-.1.4-.2.6-.2.3 0 .5.1.7.2.2.1.3.3.4.6l2 4.5c-1.4 1.1-2.9 2-4.6 2.6-1.7.6-3.4.9-5.1.9-2.7 0-4.9-.7-6.5-2.2-1.5-1.6-2.3-3.7-2.4-6.3zM443.6 40.1L439 78.7h-9.2l4.6-38.6h9.2zm2.3-11.3c0 .8-.2 1.6-.5 2.3-.3.7-.8 1.3-1.3 1.8s-1.2.9-1.9 1.3c-.7.3-1.4.5-2.2.5-.7 0-1.4-.2-2.1-.5-.7-.3-1.3-.7-1.8-1.3s-.9-1.1-1.3-1.8c-.3-.7-.5-1.5-.5-2.3 0-.8.2-1.6.5-2.3.3-.7.8-1.4 1.3-1.9s1.1-1 1.8-1.3c.7-.3 1.4-.5 2.1-.5.8 0 1.5.2 2.2.5.7.3 1.3.7 1.9 1.3.5.5 1 1.2 1.3 1.9.4.7.5 1.5.5 2.3zM462.3 40.4h22.2l-4.6 38.3h-9.2l3.9-31.7h-12.8l-3.7 30.1-1.9 7.1c-.3 1.2-.9 2.2-1.6 2.8-.8.7-1.8 1-3.2 1h-3.7l5-41-2.9-.5c-.6-.1-1.1-.3-1.5-.6-.4-.3-.5-.7-.5-1.3l.4-4.2h5.3l.2-1.2c.3-2.4.9-4.5 1.9-6.5s2.3-3.7 4-5.2c1.7-1.5 3.7-2.6 6-3.4 2.4-.8 5.1-1.2 8.2-1.2 1 0 2 .1 3.1.2s2 .3 2.7.5l-.9 4.6c-.1.6-.5.9-1 1-.5.1-1.2.1-1.9.1-2.3 0-4.3.2-5.9.6-1.6.4-2.9 1-4 1.9-1 .8-1.8 1.9-2.4 3.2-.6 1.3-.9 2.8-1.1 4.5l-.1.9zM514.6 75.4c-1.2 1-2.4 1.7-3.6 2.3-1.2.6-2.5 1-3.8 1.2s-2.8.4-4.4.4c-2.2 0-4.2-.4-6-1.1-1.8-.8-3.3-1.9-4.5-3.3-1.2-1.4-2.2-3.1-2.8-5.1-.6-2-1-4.2-1-6.6 0-3.1.5-6.1 1.5-9 1-2.8 2.4-5.4 4.2-7.5 1.8-2.2 4-3.9 6.4-5.2 2.5-1.3 5.2-1.9 8.1-1.9 2.6 0 4.7.5 6.5 1.4 1.8.9 3.4 2.3 4.8 4.1l-3 3.5c-.2.2-.5.4-.8.6-.3.2-.6.3-1 .3s-.8-.1-1.2-.4c-.4-.3-.8-.5-1.2-.8-.5-.3-1-.6-1.7-.8-.7-.3-1.6-.4-2.7-.4-1.4 0-2.8.4-4.1 1.2-1.3.8-2.5 1.9-3.4 3.3-1 1.4-1.8 3.2-2.4 5.2-.6 2-.9 4.2-.9 6.7 0 2.8.6 5 1.9 6.6 1.3 1.5 3 2.3 5.1 2.3 1.4 0 2.6-.2 3.6-.6.9-.4 1.7-.9 2.4-1.4.7-.5 1.2-.9 1.8-1.4.5-.4 1.1-.6 1.7-.6.3 0 .6.1.9.2.3.2.5.4.8.6l2.4 2.9c-1.2 1.2-2.4 2.4-3.6 3.3zM551.1 78.7h-4.9c-1.1 0-1.9-.3-2.4-.8s-.7-1.2-.7-2l.3-5.3c-1.7 2.7-3.6 4.8-5.8 6.3-2.1 1.5-4.5 2.3-7 2.3-1.5 0-2.8-.3-4.1-.9-1.3-.6-2.4-1.4-3.3-2.6s-1.7-2.6-2.2-4.3c-.5-1.7-.8-3.7-.8-6s.3-4.6.9-6.7c.6-2.2 1.4-4.2 2.5-6.2 1.1-1.9 2.4-3.7 3.9-5.3 1.5-1.6 3.2-3 5.1-4.1 1.9-1.2 3.9-2.1 6.1-2.7 2.2-.6 4.5-1 6.9-1 1.7 0 3.5.1 5.2.4 1.7.3 3.5.7 5.1 1.4l-4.8 37.5zm-16.8-7c1 0 2-.4 3-1.1 1-.7 1.9-1.7 2.8-2.9s1.7-2.7 2.4-4.4c.8-1.7 1.4-3.5 2-5.4l1.5-11.7c-.7-.1-1.3-.1-1.9-.1-2.1 0-4 .5-5.8 1.4-1.8 1-3.3 2.2-4.6 3.9s-2.3 3.5-3.1 5.6c-.7 2.1-1.1 4.4-1.1 6.8 0 2.7.4 4.7 1.3 6 .9 1.3 2 1.9 3.5 1.9zM562.6 70.9v-.6c0-.2 0-.6.1-1.1 0-.5.1-1.1.2-1.8.1-.8.2-1.8.4-3l2.1-17.3h-3.7c-.4 0-.8-.1-1-.4s-.4-.7-.4-1.2v-.2s0-.2.1-.5.1-.7.1-1.2.1-1.3.2-2.2l5.9-1 3.1-10.5c.2-.5.4-.9.8-1.2.4-.3.8-.4 1.3-.4h5l-1.5 12.2h9.3l-.8 6.6h-9.4l-2.1 16.8c-.1 1-.2 1.8-.3 2.4-.1.6-.1 1.1-.2 1.4 0 .3-.1.6-.1.7v.3c0 1 .2 1.7.7 2.3.5.6 1.1.8 2 .8.5 0 1-.1 1.4-.2.4-.1.7-.3 1-.4.3-.2.5-.3.7-.4.2-.1.4-.2.6-.2.3 0 .5.1.7.2.2.1.3.3.4.6l2 4.5c-1.4 1.1-2.9 2-4.6 2.6-1.7.6-3.4.9-5.1.9-2.7 0-4.9-.7-6.5-2.2-1.5-1.6-2.4-3.7-2.4-6.3zM617.6 49.1c0 1.7-.3 3.3-1 4.7s-1.9 2.7-3.7 3.8c-1.8 1.1-4.2 2.1-7.2 2.9-3.1.8-6.9 1.5-11.7 1.9v.6c0 6.1 2.6 9.1 7.7 9.1 1.1 0 2.1-.1 2.9-.3.9-.2 1.6-.5 2.2-.8s1.2-.6 1.7-1 1-.7 1.4-1 .9-.6 1.3-.8.9-.3 1.4-.3c.3 0 .6.1.9.2.3.1.6.3.8.6l2.4 2.9c-1.3 1.3-2.6 2.5-3.9 3.5-1.3 1-2.6 1.8-3.9 2.4-1.3.6-2.7 1.1-4.2 1.4-1.5.3-3.1.5-4.9.5-2.3 0-4.3-.4-6.1-1.1s-3.4-1.8-4.7-3.2c-1.3-1.4-2.3-3.1-3-5-.7-2-1.1-4.2-1.1-6.6 0-2 .2-4 .7-6 .4-2 1.1-3.8 1.9-5.6.8-1.8 1.8-3.4 3.1-4.9 1.2-1.5 2.6-2.8 4.1-3.8 1.5-1.1 3.2-1.9 5-2.5 1.8-.6 3.8-.9 5.9-.9 2 0 3.8.3 5.3.9 1.5.6 2.8 1.3 3.8 2.2 1 .9 1.8 1.9 2.3 3.1.3.9.6 2 .6 3.1zM604.9 46c-1.3 0-2.4.3-3.5.8s-2.1 1.2-2.9 2.2c-.9.9-1.6 2-2.3 3.3-.6 1.3-1.1 2.7-1.5 4.2 3.1-.4 5.6-.9 7.5-1.4 1.9-.5 3.4-1.1 4.4-1.7 1-.6 1.7-1.2 2.1-1.9s.5-1.4.5-2.2c0-.4-.1-.8-.2-1.2-.2-.4-.4-.8-.8-1.1-.3-.3-.8-.6-1.3-.8-.6-.1-1.3-.2-2-.2z"/>
    <path fill="#5B5F66"
          d="M686.1 47.9c0 3-.3 5.9-1 8.6-.7 2.7-1.6 5.3-2.9 7.6-1.2 2.3-2.7 4.4-4.5 6.3s-3.7 3.5-5.9 4.8c-2.2 1.3-4.5 2.4-7.1 3.1-2.5.7-5.2 1.1-8 1.1-3.5 0-6.6-.6-9.3-1.8-2.8-1.2-5.1-2.9-7.1-5.1-1.9-2.2-3.4-4.7-4.5-7.6s-1.5-6.1-1.5-9.6c0-3 .3-5.9 1-8.6.7-2.7 1.6-5.3 2.9-7.6s2.7-4.4 4.5-6.3c1.7-1.9 3.7-3.5 5.9-4.8 2.2-1.3 4.5-2.4 7.1-3.1 2.5-.7 5.2-1.1 8-1.1 3.5 0 6.6.6 9.3 1.8 2.8 1.2 5.1 2.9 7 5.1 1.9 2.2 3.4 4.7 4.4 7.7 1.2 2.8 1.7 6 1.7 9.5zm-10 .2c0-2.5-.3-4.7-.9-6.7-.6-2-1.5-3.7-2.7-5.2-1.2-1.4-2.6-2.5-4.3-3.3-1.7-.8-3.6-1.2-5.7-1.2-2.7 0-5.2.6-7.4 1.7s-4.1 2.7-5.7 4.7-2.8 4.5-3.7 7.3-1.3 6-1.3 9.5c0 2.5.3 4.7.9 6.7.6 2 1.5 3.7 2.6 5.1 1.2 1.4 2.6 2.5 4.2 3.3 1.7.8 3.6 1.1 5.7 1.1 2.7 0 5.2-.6 7.5-1.7 2.2-1.1 4.1-2.7 5.7-4.7s2.8-4.4 3.7-7.3 1.4-5.8 1.4-9.3zM688 78.7l4.6-38.7h4.7c1 0 1.7.2 2.3.7.5.5.8 1.2.8 2.3l-.3 5c2-2.9 4.1-5 6.5-6.5 2.4-1.4 4.8-2.1 7.4-2.1 1.4 0 2.7.3 3.9.8 1.2.5 2.2 1.3 3 2.3.8 1 1.5 2.2 1.9 3.7s.7 3.1.7 5c0 .5 0 1-.1 1.4 0 .5-.1 1-.1 1.5l-2.9 24.6h-9.3c.5-4.2.9-7.8 1.3-10.8.4-3 .6-5.4.9-7.4.2-2 .4-3.5.5-4.6s.2-2 .3-2.5c.1-.6.1-1 .1-1.1v-.5c0-1.7-.3-2.9-.9-3.6-.6-.7-1.5-1.1-2.8-1.1-1 0-2.1.3-3.2.9-1.1.6-2.2 1.5-3.2 2.6s-1.9 2.4-2.8 4c-.8 1.6-1.5 3.3-2 5.2l-2.1 19H688zM728.3 78.7l6.8-56h9.2l-6.8 56h-9.2zM760.5 40.1l-4.6 38.6h-9.2l4.6-38.6h9.2zm2.3-11.3c0 .8-.2 1.6-.5 2.3-.3.7-.8 1.3-1.3 1.8s-1.2.9-1.9 1.3-1.4.5-2.2.5c-.7 0-1.4-.2-2.1-.5s-1.3-.7-1.8-1.3-.9-1.1-1.3-1.8c-.3-.7-.5-1.5-.5-2.3 0-.8.2-1.6.5-2.3.3-.7.8-1.4 1.3-1.9s1.1-1 1.8-1.3 1.4-.5 2.1-.5c.8 0 1.5.2 2.2.5.7.3 1.3.7 1.9 1.3.5.5 1 1.2 1.3 1.9.4.7.5 1.5.5 2.3zM764.5 78.7l4.6-38.7h4.7c1 0 1.7.2 2.3.7.5.5.8 1.2.8 2.3l-.3 5c2-2.9 4.1-5 6.5-6.5 2.4-1.4 4.8-2.1 7.4-2.1 1.4 0 2.7.3 3.9.8 1.2.5 2.2 1.3 3 2.3.8 1 1.5 2.2 1.9 3.7s.7 3.1.7 5c0 .5 0 1-.1 1.4 0 .5-.1 1-.1 1.5L797 78.7h-9.3c.5-4.2.9-7.8 1.3-10.8.4-3 .6-5.4.9-7.4.2-2 .4-3.5.5-4.6s.2-2 .3-2.5c.1-.6.1-1 .1-1.1v-.5c0-1.7-.3-2.9-.9-3.6-.6-.7-1.5-1.1-2.8-1.1-1 0-2.1.3-3.2.9-1.1.6-2.2 1.5-3.2 2.6s-1.9 2.4-2.8 4c-.8 1.6-1.5 3.3-2 5.2l-2.1 19h-9.3zM836.9 49.1c0 1.7-.3 3.3-1 4.7s-1.9 2.7-3.7 3.8c-1.8 1.1-4.2 2.1-7.2 2.9-3.1.8-6.9 1.5-11.7 1.9v.6c0 6.1 2.6 9.1 7.7 9.1 1.1 0 2.1-.1 2.9-.3.9-.2 1.6-.5 2.2-.8s1.2-.6 1.7-1 1-.7 1.4-1 .9-.6 1.3-.8.9-.3 1.4-.3c.3 0 .6.1.9.2.3.1.6.3.8.6l2.4 2.9c-1.3 1.3-2.6 2.5-3.9 3.5-1.3 1-2.6 1.8-3.9 2.4-1.3.6-2.7 1.1-4.2 1.4-1.5.3-3.1.5-4.9.5-2.3 0-4.3-.4-6.1-1.1s-3.4-1.8-4.7-3.2c-1.3-1.4-2.3-3.1-3-5-.7-2-1.1-4.2-1.1-6.6 0-2 .2-4 .7-6 .4-2 1.1-3.8 1.9-5.6.8-1.8 1.8-3.4 3.1-4.9 1.2-1.5 2.6-2.8 4.1-3.8 1.5-1.1 3.2-1.9 5-2.5 1.8-.6 3.8-.9 5.9-.9 2 0 3.8.3 5.3.9 1.5.6 2.8 1.3 3.8 2.2 1 .9 1.8 1.9 2.3 3.1.4.9.6 2 .6 3.1zM824.2 46c-1.3 0-2.4.3-3.5.8s-2.1 1.2-2.9 2.2c-.9.9-1.6 2-2.3 3.3-.6 1.3-1.1 2.7-1.5 4.2 3.1-.4 5.6-.9 7.5-1.4 1.9-.5 3.4-1.1 4.4-1.7 1-.6 1.7-1.2 2.1-1.9s.5-1.4.5-2.2c0-.4-.1-.8-.2-1.2-.2-.4-.4-.8-.8-1.1-.3-.3-.8-.6-1.3-.8-.5-.1-1.2-.2-2-.2z"/>
</svg>
