<svg version="1" xmlns="http://www.w3.org/2000/svg" width="933.333" height="933.333" viewBox="0 0 700.000000 700.000000"><path d="M0 350v350h700V0H0v350zM391 66.5c50.5 4.2 84.5 12.3 115.8 27.7 42.8 21.1 66.2 54.7 66.2 95.1 0 44.9-27.8 87.1-79.7 121.1-10.8 7.1-34.3 19.6-40.5 21.6-2.1.6-4 1.5-4.3 2-.3.4 5.5 2.2 12.8 4 48.5 12 86 31 110.9 56.4 22.7 23 33 48.2 33.1 80.6.1 34.9-11.7 63.6-37.2 90.3-31.7 33.1-77 54.5-137 64.7-28.1 4.8-35.6 5.1-151.1 6-60.2.5-119.3 1.2-131.2 1.6l-21.8.7v-34l4.3-.7c17.5-2.7 33.4-13.2 40.2-26.6 5.7-11.3 5.5-1.3 5.5-227.9 0-143.9-.3-210.4-1.1-215.8-.6-4.3-2-9.9-3.1-12.5-2.4-5.6-9.6-12.7-16.4-16.1-5.5-2.8-24-8.8-32.6-10.8l-5.8-1.2V65h127.8c103 0 131.1.3 145.2 1.5z"/><path d="M320.2 121.3l-6.2 6.3.2 94.4.3 94.5 28.5.3c31.4.3 33 .1 42.4-5.6 18.5-11.1 32.4-34 38.8-63.7 2.8-13 3.6-48.1 1.4-62.4-5.6-36.6-21.4-57-50.8-65.5-9-2.6-26.3-4.6-40.3-4.6h-8.1l-6.2 6.3zM320.2 373.3l-6.2 6.3v86.9c0 70.8-.3 89.4-1.5 100-.8 7.2-1.8 14.2-2.1 15.8l-.6 2.7h25.5c18.5 0 27.9-.4 34.3-1.5 43.7-7.7 77.7-38.5 85.9-78 2.1-10.4 2.2-41.6.1-53.5-9.2-52.2-43.5-79.5-105.2-84-24.4-1.7-23-2-30.2 5.3z"/></svg>