<?xml version="1.0" encoding="utf-8"?>
<!-- Generator: Adobe Illustrator 16.0.0, SVG Export Plug-In . SVG Version: 6.00 Build 0)  -->
<!DOCTYPE svg PUBLIC "-//W3C//DTD SVG 1.1//EN" "http://www.w3.org/Graphics/SVG/1.1/DTD/svg11.dtd">
<svg version="1.1" id="Layer_1" xmlns="http://www.w3.org/2000/svg" xmlns:xlink="http://www.w3.org/1999/xlink" x="0px" y="0px"
	 width="893.76px" height="960px" viewBox="553.12 144 893.76 960" enable-background="new 553.12 144 893.76 960"
	 xml:space="preserve">
<g>
	<polygon fill="#DD0031" points="1000,144 1000,144 1000,144 553.12,303.36 621.28,894.24 1000,1104 1000,1104 1000,1104 
		1378.72,894.24 1446.88,303.36 	"/>
	<polygon fill="#C3002F" points="1000,144 1000,250.56 1000,250.08 1000,736.32 1000,736.32 1000,1104 1000,1104 1378.72,894.24 
		1446.88,303.36 	"/>
	<path fill="#FFFFFF" d="M1000,250.08l-279.36,626.4l0,0H824.8l0,0l56.16-140.16h237.12l56.16,140.16l0,0h104.16l0,0L1000,250.08
		L1000,250.08L1000,250.08L1000,250.08L1000,250.08z M1081.6,649.92H918.4L1000,453.6L1081.6,649.92z"/>
</g>
</svg>
