<?xml version="1.0" encoding="utf-8"?>
<!-- Generator: Adobe Illustrator 16.0.0, SVG Export Plug-In . SVG Version: 6.00 Build 0)  -->
<!DOCTYPE svg PUBLIC "-//W3C//DTD SVG 1.1//EN" "http://www.w3.org/Graphics/SVG/1.1/DTD/svg11.dtd">
<svg version="1.1" id="Layer_1" xmlns="http://www.w3.org/2000/svg" xmlns:xlink="http://www.w3.org/1999/xlink" x="0px" y="0px"
	 width="1058.291px" height="1200px" viewBox="470.854 0 1058.291 1200" enable-background="new 470.854 0 1058.291 1200"
	 xml:space="preserve">
<g>
	<polygon fill="#0A71B9" points="470.854,0 1529.146,0 1434.674,1081.407 999.497,1200 565.326,1081.407 	"/>
	<polygon fill="#28A7DE" points="999.497,89.447 1440.703,89.447 1356.281,1011.056 999.497,1113.567 	"/>
	<g>
		<polygon fill="#EBEBEB" points="1272.864,223.116 668.844,223.116 681.909,354.773 1186.432,354.773 1170.352,487.438 
			693.97,487.438 706.03,617.085 1163.316,617.085 1146.231,795.979 997.487,832.161 851.759,795.979 843.719,689.447 
			713.065,689.447 733.166,903.518 1003.518,976.885 1272.864,903.518 1336.181,223.116 		"/>
	</g>
	<g>
		<polygon fill="none" points="1170.352,487.438 1186.432,354.773 1002.513,354.773 1002.513,487.438 		"/>
		<polygon fill="none" points="1146.231,795.979 1163.316,617.085 1002.513,617.085 1002.513,830.15 		"/>
		<polygon fill="#FFFFFF" points="1271.859,223.116 999.497,223.116 999.497,354.773 1185.427,354.773 1169.347,487.438 
			999.497,487.438 999.497,617.085 1162.312,617.085 1145.227,795.979 999.497,830.15 999.497,976.885 1001.508,976.885 
			1271.859,903.518 1336.181,223.116 		"/>
	</g>
</g>
</svg>
