<?xml version="1.0" encoding="utf-8"?>
<!-- Generator: Adobe Illustrator 16.0.0, SVG Export Plug-In . SVG Version: 6.00 Build 0)  -->
<!DOCTYPE svg PUBLIC "-//W3C//DTD SVG 1.1//EN" "http://www.w3.org/Graphics/SVG/1.1/DTD/svg11.dtd">
<svg version="1.1" id="envoyer-logo-on-dark" xmlns="http://www.w3.org/2000/svg" xmlns:xlink="http://www.w3.org/1999/xlink"
	 x="0px" y="0px" width="375.625px" height="443.838px" viewBox="0 343.975 375.625 443.838"
	 enable-background="new 0 343.975 375.625 443.838" xml:space="preserve">
<path id="smoke" fill="#f56857" d="M212.824,787.813c15.461-1.819,31.833-5.457,47.294-10.004l0.91-147.34
	c-0.91-0.91-1.819-1.819-1.819-2.729c-5.457-5.457-10.914-10.005-17.281-13.643c-5.457,6.366-10.914,12.732-16.371,17.28
	c-3.638,2.729-7.276,4.548-10.914,7.276L212.824,787.813L212.824,787.813z M115.507,776.898
	c15.462,5.457,30.923,8.186,46.385,10.005l0.91-150.068c-3.638-1.819-7.276-4.548-10.914-7.276
	c-6.367-4.547-11.824-10.914-16.371-17.28c-6.367,3.638-11.824,8.186-17.281,13.643c-0.909,0.909-1.819,1.819-2.729,2.729v73.67l0,0
	V776.898z"/>
<path id="ship" fill="#f56857" d="M189.177,343.975c-38.199,0-70.032,62.756-70.032,140.063c0,7.276,0,14.552,0.91,21.828
	c-30.014,21.828-50.023,56.39-50.023,96.407c0,17.281,3.638,32.742,10.004,47.295c11.824-27.285,34.562-50.023,62.756-61.847
	c11.824,22.737,28.195,36.38,46.385,36.38c18.19,0,34.562-13.643,47.294-36.38c27.285,11.823,50.022,34.562,61.846,61.847
	c6.367-14.553,10.004-30.924,10.004-47.295c0-40.018-19.1-75.488-49.113-96.407c0.909-7.276,0.909-14.552,0.909-21.828
	C258.299,407.64,227.376,343.975,189.177,343.975L189.177,343.975z M188.268,434.925c17.28,0,30.923,13.643,30.923,30.923
	c0,17.281-13.643,30.924-30.923,30.924c-17.281,0-30.923-13.643-30.923-30.924C158.254,448.567,171.896,434.925,188.268,434.925z"/>
<path id="outer-circle" fill="#FBCBC7" d="M92.77,713.233c-23.647-20.919-40.019-49.113-46.385-81.855
	C29.104,629.559,13.643,627.74,0,625.921c6.367,60.937,41.837,112.778,92.77,142.792V713.233L92.77,713.233z M47.294,573.17
	c2.729-12.733,8.185-25.467,13.642-37.29c1.819-3.638,2.729-7.276,4.548-10.005c8.186-16.371,20.009-30.923,34.561-42.746v-1.819
	l0,0c0-4.548,0-9.095,0-11.823c0-11.824,0.91-22.738,1.819-33.651C48.204,464.029,9.095,516.78,0.91,578.627
	C14.552,576.808,30.014,574.988,47.294,573.17L47.294,573.17z M282.856,767.804c50.022-29.104,85.493-81.855,92.77-142.792
	c-13.643,1.818-29.104,4.547-46.385,5.457c-6.367,32.742-22.738,60.937-46.385,81.855V767.804L282.856,767.804z M374.716,578.627
	c-8.186-61.847-46.385-113.688-100.045-141.883c0.91,10.914,1.819,21.828,1.819,33.651c0,2.729,0,7.276,0,11.823l0,0v1.819
	c13.643,11.823,25.466,26.376,33.652,42.747c1.819,3.638,3.638,6.366,4.547,10.004c6.367,10.914,10.914,23.647,13.643,36.381
	C345.612,574.988,361.073,576.808,374.716,578.627z"/>
</svg>
