<?xml version="1.0" encoding="utf-8"?>
<!-- Generator: Adobe Illustrator 16.0.0, SVG Export Plug-In . SVG Version: 6.00 Build 0)  -->
<!DOCTYPE svg PUBLIC "-//W3C//DTD SVG 1.1//EN" "http://www.w3.org/Graphics/SVG/1.1/DTD/svg11.dtd">
<svg version="1.1" id="Layer_1" xmlns="http://www.w3.org/2000/svg" xmlns:xlink="http://www.w3.org/1999/xlink" x="0px" y="0px"
	 width="1913.68px" height="450.053px" viewBox="44.539 374.974 1913.68 450.053"
	 enable-background="new 44.539 374.974 1913.68 450.053" xml:space="preserve">
<g id="Layer_1_1_">
	<g>
		<circle fill="#FFFFFF" cx="269.565" cy="600" r="225.026"/>
		<g>
			
				<linearGradient id="SVGID_1_" gradientUnits="userSpaceOnUse" x1="-157.4214" y1="1308.5479" x2="-157.4214" y2="1104.3175" gradientTransform="matrix(2.1209 0 0 -2.1209 603.4393 3157.4915)">
				<stop  offset="0.0051" style="stop-color:#FFB700"/>
				<stop  offset="0.0165" style="stop-color:#FBAC00"/>
				<stop  offset="0.0568" style="stop-color:#EE8D00"/>
				<stop  offset="0.1025" style="stop-color:#E47200"/>
				<stop  offset="0.154" style="stop-color:#DB5C00"/>
				<stop  offset="0.2143" style="stop-color:#D44B00"/>
				<stop  offset="0.2888" style="stop-color:#CF3F00"/>
				<stop  offset="0.3934" style="stop-color:#CD3800"/>
				<stop  offset="0.6836" style="stop-color:#CC3600"/>
				<stop  offset="1" style="stop-color:#CC3600"/>
			</linearGradient>
			<path fill="url(#SVGID_1_)" d="M269.565,374.974C145.281,374.974,44.539,475.716,44.539,600
				c0,76.564,38.388,144.221,96.925,184.941V600c0-70.838,57.476-128.102,128.102-128.102c70.625,0,128.102,57.476,128.102,128.102
				c0,70.838-57.476,128.102-128.102,128.102c-28.632,0-54.931-9.544-76.353-25.238v108.802
				c23.754,8.483,49.417,13.361,76.353,13.361c124.284,0,225.026-100.742,225.026-225.026S393.85,374.974,269.565,374.974z"/>
			<circle fill="#FFB700" cx="269.565" cy="600" r="74.867"/>
			<path fill="#E0A000" d="M269.565,532.344c40.084,0,72.746,31.602,74.867,71.262c0-1.272,0.212-2.545,0.212-3.605
				c0-41.357-33.51-74.867-74.867-74.867s-75.292,33.51-75.292,74.867c0,1.272,0.212,2.545,0.212,3.605
				C196.606,563.945,229.48,532.344,269.565,532.344z"/>
		</g>
		<path fill="#292C2E" d="M636.479,675.292V524.708h62.99c34.358,0,56.416,20.148,56.416,51.326
			c0,30.753-23.33,52.174-56.416,52.174h-29.48v47.084H636.479z M697.561,599.788c15.695,0,24.814-8.696,24.814-23.754
			c0-14.847-8.907-22.906-24.814-22.906h-27.571V600h27.571V599.788z"/>
		<polygon fill="#292C2E" points="828.632,675.292 828.632,524.708 935.313,524.708 935.313,553.341 862.143,553.341 
			862.143,584.729 928.95,584.729 928.95,613.573 862.143,613.573 862.143,646.872 935.525,646.872 935.525,675.292 		"/>
		<path fill="#292C2E" d="M1098.197,675.292l-26.724-46.66h-27.359v46.66h-33.51V524.708h68.293
			c33.51,0,54.931,20.361,54.931,51.962c0,20.573-10.393,37.54-27.996,46.023l31.178,52.599H1098.197z M1075.292,600.637
			c15.694,0,25.026-9.12,25.026-24.179s-9.12-23.542-25.026-23.542h-31.178v47.933h31.178V600.637z"/>
		<path fill="#292C2E" d="M1476.14,678.261c-40.933,0-67.444-26.511-67.444-67.656v-21.421c0-41.146,26.512-67.656,67.444-67.656
			c41.569,0,67.444,25.875,67.444,67.656v21.421C1543.584,652.386,1517.709,678.261,1476.14,678.261z M1476.14,550.371
			c-21.421,0-33.934,13.786-33.934,37.54v24.178c0,23.966,12.301,37.54,33.934,37.54c21.421,0,33.935-13.786,33.935-37.54v-24.178
			C1510.074,563.945,1497.773,550.371,1476.14,550.371z"/>
		<polygon fill="#292C2E" points="1713.043,675.292 1652.598,582.82 1652.598,675.292 1619.725,675.292 1619.725,524.708 
			1650.689,524.708 1711.347,617.18 1711.347,524.708 1744.221,524.708 1744.221,675.292 		"/>
		<path fill="#292C2E" d="M1924.284,675.292l-9.756-30.753h-53.871l-9.756,30.753h-33.51l54.083-150.584h32.661l54.083,150.584
			H1924.284z M1905.62,617.18l-18.027-57.053l-18.239,57.053H1905.62z"/>
		<g>
			<g>
				<path fill="#292C2E" d="M1306.893,622.27c-2.545,17.392-14.21,27.783-31.813,27.783c-28.633,0-32.874-23.754-32.874-37.964
					v-23.754c0-14.21,4.241-37.964,32.874-37.964c17.391,0,29.268,10.393,31.813,27.571l31.178-4.666
					c-4.242-30.54-29.269-51.325-62.778-51.325c-41.357,0-66.172,25.238-66.172,67.868v20.997c0,42.418,24.814,67.869,66.172,67.869
					c33.722,0,58.748-20.785,62.778-51.326L1306.893,622.27z"/>
			</g>
		</g>
	</g>
</g>
</svg>
