<?xml version="1.0" encoding="utf-8"?>
<!-- Generator: Adobe Illustrator 16.0.0, SVG Export Plug-In . SVG Version: 6.00 Build 0)  -->
<!DOCTYPE svg PUBLIC "-//W3C//DTD SVG 1.1//EN" "http://www.w3.org/Graphics/SVG/1.1/DTD/svg11.dtd">
<svg version="1.1" id="Layer_1" xmlns="http://www.w3.org/2000/svg" xmlns:xlink="http://www.w3.org/1999/xlink" x="0px" y="0px"
	 width="1200px" height="1200px" viewBox="400 0 1200 1200" enable-background="new 400 0 1200 1200" xml:space="preserve">
<circle fill="#6F81B9" cx="1000" cy="600" r="600"/>
<g>
	<path fill="#FFFFFF" d="M781.04,474.88H626.72L560,812.7h79.24l16.68-87.58H731c70.9,4.18,150.14-54.22,150.14-154.32
		C881.14,512.42,847.78,479.06,781.04,474.88L781.04,474.88z M722.66,662.56H672.6l20.86-125.12h54.22
		c29.2,0,50.04,12.521,50.04,37.541C793.56,645.88,760.18,658.38,722.66,662.56z"/>
	<path fill="#FFFFFF" d="M865.34,725.12l66.721-337.82h79.239l-16.68,87.58h75.08c66.72,4.18,91.76,37.54,83.42,79.24l-29.2,171
		h-83.42l29.2-154.32c4.18-20.859,4.18-33.359-25.021-33.359h-62.56l-37.54,187.68H865.34z"/>
	<path fill="#FFFFFF" d="M1339.9,474.88H1185.6l-66.72,337.82h79.24l16.68-87.58h75.08C1360.76,729.28,1440,670.9,1440,570.8
		C1440,512.42,1406.64,479.06,1339.9,474.88L1339.9,474.88z M1281.52,662.56h-50.039l20.859-125.12h54.22
		c29.2,0,50.04,12.521,50.04,37.541C1352.42,645.88,1319.06,658.38,1281.52,662.56L1281.52,662.56z"/>
</g>
</svg>
